<?xml version="1.0" encoding="UTF-8" standalone="no"?> <svg id="Layer_1" data-name="Layer 1" xmlns="http://www.w3.org/2000/svg" viewBox="0 0 128 128"><defs><style>.cls-1{fill:#2d3e50;}</style></defs><title>v</title><path class="cls-1" d="M109.632,52.65055c-6.37167-1.307-8.33641-1.21126-14.79512-1.20473q-1.75169.00321-3.50562.00434c-2.80482.00412-6.1248.00889-10.06154.013L74.08882,39.89628,71.3887,35.547,51.658,3.76553l-.02891-.04325A3.74862,3.74862,0,0,0,44.87756,6.463l2.31219,45.00239q-6.0099-.00458-12.86218-.01306a45.54119,45.54119,0,0,0-7.57223.73024L19.15619,38.25085a2.67975,2.67975,0,0,0-5.02253,1.50957c.0061.07077-.005,12.22182-.00873,16.09465-2.09475.92985-4.104,1.953-5.8147,2.88227-.93729.50671-1.78321.98729-2.50741,1.407l-.00434.00434a5.27352,5.27352,0,0,0,0,7.70257l.00434.00439c.7242.41967,1.57012.90025,2.50741,1.407,1.71068.92932,3.72,1.95247,5.8147,2.88233.00369,3.87278.01483,16.02388.00873,16.09465a2.67975,2.67975,0,0,0,5.02253,1.50957L26.75534,75.8174a45.54119,45.54119,0,0,0,7.57223.73024q6.86246-.00859,12.86218-.01306L44.87756,121.537a3.75025,3.75025,0,0,0,6.75157,2.74069l.02891-.0432L71.3887,92.453l2.70011-4.34929,7.18093-11.56678c3.93674.004,7.25672.00878,10.06154.013q1.75506,0,3.50562.00434c6.45871.00653,8.42345.10219,14.79512-1.20473C115.393,74.16774,123.81852,71.12863,123.87258,64,123.81852,56.87137,115.393,53.83226,109.632,52.65055Z"/></svg>